<?xml version="1.0" standalone="no"?>
<!DOCTYPE svg PUBLIC "-//W3C//DTD SVG 20010904//EN"
 "http://www.w3.org/TR/2001/REC-SVG-20010904/DTD/svg10.dtd">
<svg version="1.0" xmlns="http://www.w3.org/2000/svg"
 width="200" height="99" viewBox="0 0 564.000000 655.000000"
 preserveAspectRatio="xMidYMid meet">

<g transform="translate(0.000000,655.000000) scale(0.100000,-0.100000)"
fill="#000000" stroke="none">
<path d="M2626 6449 c44 -126 65 -231 71 -354 9 -203 -28 -365 -142 -615 -30
-66 -80 -174 -110 -240 -116 -255 -158 -419 -158 -615 0 -155 18 -248 74 -389
39 -98 136 -272 185 -331 20 -25 18 -16 -15 56 -98 214 -135 365 -135 554 -1
201 29 309 184 660 188 428 237 654 195 901 -20 119 -57 228 -116 347 -27 53
-51 97 -53 97 -3 0 6 -32 20 -71z"/>
<path d="M1915 3509 c-435 -41 -755 -135 -946 -277 -128 -96 -156 -173 -139
-378 42 -506 126 -888 250 -1134 98 -195 272 -400 429 -504 165 -110 367 -189
581 -228 158 -29 506 -31 655 -4 216 39 398 109 547 209 88 58 224 186 269
251 21 31 39 41 129 72 314 110 397 142 518 200 163 78 233 119 339 201 191
148 284 328 268 518 -17 206 -121 374 -284 458 -86 45 -122 56 -215 66 -135
15 -301 -20 -376 -79 l-25 -20 45 16 c68 24 221 29 304 10 247 -58 386 -226
386 -468 0 -102 -26 -169 -100 -261 -99 -123 -265 -250 -510 -389 -224 -126
-395 -223 -402 -226 -4 -2 17 43 47 100 68 131 105 239 145 419 18 79 46 181
62 227 54 149 171 297 271 342 150 69 358 -61 361 -225 0 -61 -20 -103 -88
-183 -89 -102 -203 -189 -420 -317 -54 -33 -93 -61 -87 -63 18 -6 325 148 411
206 163 109 261 223 278 322 21 115 -16 216 -110 306 -132 126 -311 154 -475
74 -127 -63 -196 -158 -198 -275 -2 -79 -82 -386 -139 -533 -145 -376 -384
-618 -721 -730 -466 -155 -1062 -87 -1430 161 -145 98 -320 308 -417 501 -107
213 -194 537 -233 869 l-7 59 56 -45 c168 -137 439 -229 836 -283 158 -21 606
-30 797 -15 645 50 1171 241 1253 455 14 39 6 44 -10 7 -40 -99 -220 -195
-480 -260 -660 -163 -1700 -93 -2163 146 -92 48 -170 115 -181 157 -28 112
227 257 600 340 563 127 1315 123 1799 -9 227 -62 375 -148 428 -250 9 -16 16
-25 17 -20 0 17 -41 88 -69 119 -39 42 -134 104 -226 147 -235 110 -564 186
-950 219 -141 12 -550 11 -680 -1z"/>
<path d="M665 2237 c-393 -137 -593 -295 -651 -512 -30 -110 -6 -214 78 -341
269 -404 911 -709 1678 -798 430 -50 976 -46 1375 10 674 94 1182 327 1424
653 55 74 118 200 127 253 4 25 0 20 -18 -22 -130 -303 -507 -546 -1035 -665
-474 -107 -1142 -133 -1763 -69 -775 79 -1363 313 -1663 662 -31 37 -71 95
-89 129 -28 58 -30 69 -26 137 7 101 41 169 132 262 107 108 280 213 521 315
126 54 87 47 -90 -14z"/>
<path d="M466 943 c38 -31 119 -89 179 -129 716 -472 1733 -616 2664 -378 395
101 755 271 980 463 128 109 135 120 31 51 -327 -219 -849 -376 -1450 -436
-227 -23 -707 -23 -920 -1 -411 44 -744 121 -1055 244 -142 56 -322 143 -429
208 -32 19 -61 35 -63 35 -3 0 25 -25 63 -57z"/>
<path d="M5005 947 c-85 -28 -83 -35 11 -30 147 8 320 -42 428 -124 63 -48 71
-68 25 -58 -53 11 -156 54 -218 91 -95 57 -163 75 -271 73 -52 -1 -109 -7
-127 -15 -95 -38 -52 -245 76 -373 125 -125 378 -194 537 -146 109 32 181 136
171 247 -17 188 -224 331 -497 344 -64 3 -108 0 -135 -9z m95 -111 c32 -13 87
-44 122 -69 79 -56 124 -78 216 -108 206 -66 25 -144 -205 -89 -148 35 -286
116 -334 193 -31 52 -26 61 28 53 57 -8 130 -40 237 -106 62 -38 104 -55 172
-71 49 -12 108 -27 132 -34 23 -7 42 -9 42 -5 0 14 -44 37 -115 60 -87 28
-137 53 -199 98 -26 19 -76 50 -110 68 -72 40 -68 43 14 10z m-4 -297 c106
-51 204 -72 318 -67 73 4 85 2 71 -8 -35 -26 -122 -37 -193 -24 -138 23 -235
65 -304 133 -67 65 -84 103 -22 48 27 -23 85 -60 130 -82z"/>
<path d="M4293 605 c-144 -26 -260 -101 -308 -198 -35 -74 -41 -133 -20 -201
52 -164 261 -241 522 -191 159 30 305 133 364 255 62 128 42 207 -56 224 -16
3 -50 12 -75 22 -68 24 -199 14 -319 -26 -104 -34 -261 -53 -261 -31 0 18 118
70 201 87 116 24 272 20 358 -9 82 -27 88 -17 14 25 -96 54 -263 72 -420 43z
m287 -149 c-41 -12 -94 -32 -118 -44 -52 -27 -130 -48 -242 -62 -46 -6 -96
-18 -110 -26 -23 -13 -11 -14 120 -11 139 4 150 6 268 46 141 48 275 72 294
53 18 -18 -4 -56 -55 -91 -154 -106 -453 -135 -607 -58 -81 40 -52 96 50 97
62 0 160 25 240 60 79 35 162 59 205 59 20 0 5 -8 -45 -23z m126 -235 c-72
-73 -172 -112 -331 -126 -88 -8 -203 14 -258 51 -21 14 -37 27 -35 29 2 2 31
-4 63 -14 168 -52 394 -25 535 63 70 44 71 44 26 -3z"/>
</g>
</svg>
